<?xml version="1.0" encoding="UTF-8" standalone="no"?>
<!-- Created with Inkscape (http://www.inkscape.org/) -->

<svg
   xmlns:dc="http://purl.org/dc/elements/1.1/"
   xmlns:cc="http://creativecommons.org/ns#"
   xmlns:rdf="http://www.w3.org/1999/02/22-rdf-syntax-ns#"
   xmlns:svg="http://www.w3.org/2000/svg"
   xmlns="http://www.w3.org/2000/svg"
   xmlns:sodipodi="http://sodipodi.sourceforge.net/DTD/sodipodi-0.dtd"
   xmlns:inkscape="http://www.inkscape.org/namespaces/inkscape"
   width="100mm"
   height="50mm"
   viewBox="0 0 354.33071 177.16535"
   id="svg2"
   version="1.1"
   inkscape:version="0.91 r13725"
   sodipodi:docname="jimuc4.svg"
   inkscape:export-filename="/Users/kayamikio/jimuc3.png"
   inkscape:export-xdpi="90"
   inkscape:export-ydpi="90">
  <defs
     id="defs4" />
  <sodipodi:namedview
     id="base"
     pagecolor="#ffffff"
     bordercolor="#666666"
     borderopacity="1.0"
     inkscape:pageopacity="0.0"
     inkscape:pageshadow="2"
     inkscape:zoom="2.7119882"
     inkscape:cx="179.50521"
     inkscape:cy="80.443586"
     inkscape:document-units="px"
     inkscape:current-layer="layer1"
     showgrid="false"
     inkscape:window-width="1440"
     inkscape:window-height="791"
     inkscape:window-x="0"
     inkscape:window-y="1"
     inkscape:window-maximized="1" />
  <metadata
     id="metadata7">
    <rdf:RDF>
      <cc:Work
         rdf:about="">
        <dc:format>image/svg+xml</dc:format>
        <dc:type
           rdf:resource="http://purl.org/dc/dcmitype/StillImage" />
        <dc:title></dc:title>
      </cc:Work>
    </rdf:RDF>
  </metadata>
  <g
     inkscape:label="Layer 1"
     inkscape:groupmode="layer"
     id="layer1"
     transform="translate(0,-875.19685)">
    <g
       transform="matrix(1.6803082,-0.05541233,0.0443854,1.2587958,8.7202996,869.3648)"
       style="font-style:normal;font-weight:normal;font-size:40px;line-height:125%;font-family:sans-serif;letter-spacing:0px;word-spacing:0px;fill:#803300;fill-opacity:1;stroke:none;stroke-width:1px;stroke-linecap:butt;stroke-linejoin:miter;stroke-opacity:1"
       id="flowRoot3346-6">
      <path
         d="m 21.108839,54.767266 0.192295,0.907466 c -2.579788,2.114333 -1.737245,2.438389 -3.271515,2.149996 -2.818066,-0.529705 -3.293377,-1.599885 -3.293377,-1.599885 -8.685663,-6.32604 -0.945471,0.94235 -1.252824,0.585953 -5.8585957,-6.79345 -2.70829,-5.565217 -1.961623,-7.165217 0.387973,-0.824442 -2.4755205,-2.23757 -0.343965,-4.632822 0.929774,-1.044797 3.317483,10.92257 4.565844,10.135967 2.184428,-1.376427 -0.823041,-4.512641 -0.452881,-4.586673 0.705363,-0.122672 -6.6306948,1.270621 3.162255,-2.048779 1.94146,-0.65808 -3.384102,2.688414 -2.092176,3.187052 3.093334,1.12 8.10732,-1.038947 4.747967,3.066942 z m 8.12077,19.609044 c 0.16,0.213333 0.24,0.48 0.24,0.8 0,0.426667 -0.32,1.226667 -0.96,2.4 -0.586667,1.173333 -0.88,2.053333 -0.88,2.64 l 0,39.12 c 0,0.0533 0.02667,0.4 0.08,1.04 l 0,1.76 c 0,2.47338 0.475882,5.68197 0.625045,8.50325 0.153178,2.89721 0.917592,6.23755 -0.851037,10.42147 -3.394625,5.81486 -6.103234,3.83573 -7.969901,3.83573 -3.893333,0 -6.888689,-3.57602 -10.1953553,-4.64269 -1.5466667,-0.48 -4.4685808,-4.83277 -6.8685808,-6.59277 -2.77333332,-2.02667 -3.7001705,-9.33832 -3.7001705,-10.56499 0,-0.74667 0.50666666,-1.44 1.51999997,-2.08 0.16000001,-0.10667 0.53333335,-0.16 1.12000003,-0.16 3.2,0 5.8666667,0.53333 8,1.6 0.5333331,0.64 1.0133326,1.28 1.4399996,1.92 0.853333,1.01333 4.871407,4.06349 5.30036,2.28896 1.201532,-4.97062 0.762479,-3.56866 0.551652,-10.25753 L 15.389609,75.41631 c -0.64,-2.026667 -0.96,-3.386667 -0.96,-4.08 0,-0.693333 0.986667,-1.04 2.96,-1.04 1.653333,0 3.893333,0.506667 6.72,1.52 2.826667,0.96 4.533333,1.813333 5.12,2.56 z"
         style="font-style:normal;font-variant:normal;font-weight:bold;font-stretch:normal;font-size:80px;line-height:125%;font-family:'Marker Felt';-inkscape-font-specification:'Marker Felt, Bold';text-align:start;writing-mode:lr-tb;text-anchor:start;fill:#803300"
         id="path3380"
         inkscape:connector-curvature="0"
         sodipodi:nodetypes="ccscscsscscccscsscsscsccscsccsscsscc" />
      <path
         d="m 50.7284,46.034053 c -1.59925,-4.092721 37.070679,-8.369884 45.283317,-8.141769 3.79081,0.105294 -10.095975,1.584189 -17.998883,5.656789 -0.844137,0.435009 -18.383611,3.42896 -25.037392,11.501808 4.586042,-0.145494 29.256519,-0.766994 32.54446,-0.915054 5.921947,-0.266673 -15.954009,4.645408 -17.404503,5.624869 -1.720677,1.161905 -8.461077,2.688477 -15.750779,5.286503 -0.533333,0.213333 -3.577648,2.538534 -7.630981,1.205201 -4.053333,-1.386667 -7.041113,-0.889423 -7.30778,-1.47609 -0.16,-0.266667 -0.24,-0.666667 -0.24,-1.2 0,-1.44 0.373333,-2.96 1.12,-4.56 0.407198,-0.865296 1.526815,-4.663756 0.810408,-8.249423 -0.78491,-3.928534 -3.411227,-7.634746 -2.853558,-7.74628 0.745689,-0.129685 9.627742,-2.138815 21.461772,-10.818144 C 65.357555,26.604204 82.457729,18.372537 83.649716,18.832602 84.580723,19.175605 72.703882,26.01663 68.830295,28.907357 60.055533,35.455668 56.025414,38.954255 50.7284,46.034053 Z m 1.977459,70.102257 c 0.213333,1.92 -0.453333,3.12 -2,3.6 -0.266667,0.0533 -0.64,0.08 -1.12,0.08 -1.92,0 -4.423049,0.55072 -7.249716,-0.24928 -3.04,-0.85333 -4.696951,-2.71072 -5.230284,-3.67072 -0.266667,-0.42667 -0.02667,-1.25333 0.72,-2.48 0.48,-0.8 0.72,-2.26667 0.72,-4.4 l 0,-33.6 c -0.64,-2.026667 -0.96,-3.386667 -0.96,-4.08 0,-0.693333 0.986667,-1.04 2.96,-1.04 1.6,0 3.813333,0.506667 6.64,1.52 2.88,0.96 4.613333,1.813333 5.2,2.56 0.16,0.213333 0.24,0.48 0.24,0.8 0,0.426667 -0.32,1.226667 -0.96,2.4 -0.586667,1.173333 -0.88,2.053333 -0.88,2.64 l 0,32.16 c 0,0.53333 0.293333,1.2 0.88,2 0.64,0.8 0.986667,1.38667 1.04,1.76 z"
         style="font-style:normal;font-variant:normal;font-weight:bold;font-stretch:normal;font-size:80px;line-height:125%;font-family:'Marker Felt';-inkscape-font-specification:'Marker Felt, Bold';text-align:start;writing-mode:lr-tb;text-anchor:start;fill:#803300"
         id="path3382"
         inkscape:connector-curvature="0"
         sodipodi:nodetypes="csscsscccscscscscccscccscssccscsscc" />
      <path
         d="m 119.41961,112.61631 q 0.64,1.52 0.64,3.04 0,2.4 -1.84,3.28 -0.56,0.24 -2,0.24 -2.72,0 -6.48,-0.88 -3.76,-0.8 -4.56,-1.6 -0.4,-0.48 -0.4,-1.04 0,-0.88 1.2,-2.8 1.2,-2 1.2,-2.88 0.16,-31.52 -0.48,-31.76 -1.28,-0.4 -5.2,6.32 -4.320001,7.36 -4.320001,12.8 l 0,15.68 q 0.56,1.84 0.56,2.88 0,2 -2.08,3.04 -0.56,0.24 -2,0.24 -2.72,0 -6.48,-0.88 -3.76,-0.8 -4.56,-1.6 -0.32,-0.32 -0.32,-0.8 0,-0.8 1.12,-2.88 1.2,-2.08 1.2,-3.04 0.16,-31.52 -0.48,-31.76 -1.12,-0.4 -5.52,7.2 -4.64,8 -4.64,12.08 l 0,14.96 q 1.04,1.04 1.04,2.56 0,3.04 -2.72,4.16 -0.32,0.16 -0.96,0.16 -2.16,0 -6.32,-1.04 -4.16,-0.96 -4.64,-1.6 -0.48,-0.64 -0.48,-1.44 0,-0.8 0.88,-1.92 0.96,-1.12 0.96,-1.44 l 0,-37.2 q 0,-0.64 -0.64,-1.68 -0.64,-1.04 -0.4,-1.76 0.48,-1.68 2.48,-2.16 1.28,-0.32 6,0.88 5.12,1.28 5.6,2.64 0.32,0.88 -0.24,2.64 -0.88,2.8 -0.88,3.2 0,0.88 0.32,1.92 1.2,-4 3.36,-7.12 2.64,-3.76 5.28,-3.76 2.56,0 6.96,2 4.08,1.92 5.04,3.28 0.72,0.96 1.6,5.76 3.28,-6.08 3.76,-6.96 2.720001,-4.08 5.200001,-4.08 2.72,0 7.04,1.92 4.32,1.84 4.96,3.36 2.24,5.12 2.24,37.84 z"
         style="font-style:normal;font-variant:normal;font-weight:bold;font-stretch:normal;font-size:80px;line-height:125%;font-family:'Marker Felt';-inkscape-font-specification:'Marker Felt, Bold';text-align:start;writing-mode:lr-tb;text-anchor:start;fill:#803300"
         id="path3384"
         inkscape:connector-curvature="0" />
      <path
         d="m 163.20086,72.05631 q 0.56,0.8 0.56,1.6 0,0.8 -0.96,1.92 -0.88,1.12 -0.88,1.44 l 0,37.2 q 0,0.48 0.48,1.68 0.56,1.2 0.56,1.76 0,1.44 -2.48,2.08 -1.28,0.32 -6,-0.88 -5.12,-1.28 -5.6,-2.56 -0.4,-1.04 0.24,-2.8 0.8,-2.08 0.8,-2.88 0,-0.8 -0.24,-2.08 -1.2,4 -3.36,7.12 -2.64,3.68 -5.28,3.68 -2.72,0 -7.04,-1.84 -4.32,-1.84 -4.96,-3.36 -2.24,-5.12 -2.24,-37.84 -0.64,-1.52 -0.64,-3.04 0,-2.48 1.84,-3.36 0.56,-0.24 2,-0.24 2.72,0 6.48,0.88 3.76,0.8 4.56,1.68 0.4,0.48 0.4,1.04 0,0.88 -1.2,2.88 -1.2,1.92 -1.2,2.8 -0.16,31.52 0.48,31.76 1.12,0.4 5.6,-7.36 4.56,-7.84 4.56,-11.92 l 0,-14.96 q -1.04,-1.04 -1.04,-2.56 0,-3.12 2.72,-4.24 0.32,-0.16 0.96,-0.16 2.16,0 6.32,1.04 4.16,0.96 4.56,1.52 z"
         style="font-style:normal;font-variant:normal;font-weight:bold;font-stretch:normal;font-size:80px;line-height:125%;font-family:'Marker Felt';-inkscape-font-specification:'Marker Felt, Bold';text-align:start;writing-mode:lr-tb;text-anchor:start;fill:#803300"
         id="path3386"
         inkscape:connector-curvature="0" />
      <path
         d="m 203.83461,102.13631 q 0,1.52 -2.64,4.08 -2.16,4.72 -3.84,6.8 -3.68,4.8 -9.04,5.68 -1.12,0.16 -2.16,0.16 -4.48,0 -11.04,-4.32 -5.68,-3.84 -5.68,-17.68 0,-10.24 3.12,-18.56 3.44,-9.04 8.4,-9.36 3.92,-0.24 9.6,2.08 5.68,2.32 7.68,5.12 1.68,2.32 1.68,6.16 0,1.04 -0.16,3.04 -0.16,1.92 -0.08,2.72 0.16,2.16 0.16,2 0,2.56 -2.48,2.48 -2.88,-0.08 -5.44,-0.88 -3.44,-1.2 -4.16,-3.28 -0.24,-0.72 0.64,-1.92 0.96,-1.2 0.8,-2 0.16,-0.56 0.16,-2.8 0,-4.8 -1.68,-4.96 -2.56,-0.16 -4.32,7.76 -1.6,7.04 -1.6,15.36 0,9.84 2.32,10.4 1.84,0.4 4.8,-4 2.48,-3.76 2.64,-5.04 0.24,-1.36 0.4,-2.72 0.56,-2.24 2.88,-2.08 1.44,0.16 5.04,1.84 3.6,1.68 3.76,2.56 0.24,0.8 0.24,1.36 z"
         style="font-style:normal;font-variant:normal;font-weight:bold;font-stretch:normal;font-size:80px;line-height:125%;font-family:'Marker Felt';-inkscape-font-specification:'Marker Felt, Bold';text-align:start;writing-mode:lr-tb;text-anchor:start;fill:#803300"
         id="path3388"
         inkscape:connector-curvature="0" />
    </g>
    <g
       transform="matrix(1.6803082,-0.05490946,0.0443854,1.2473722,0.6265537,868.47922)"
       style="font-style:normal;font-weight:normal;font-size:40px;line-height:125%;font-family:sans-serif;letter-spacing:0px;word-spacing:0px;fill:#ef7b2f;fill-opacity:1;stroke:none;stroke-width:1px;stroke-linecap:butt;stroke-linejoin:miter;stroke-opacity:1"
       id="flowRoot3346-6-7">
      <path
         d="m 23.144239,54.898085 -3.275966,1.538673 c -7.318203,5.997826 -2.843735,-1.273058 -3.379312,-0.911149 -0.16,-0.266667 3.335113,6.662362 -1.543587,2.486082 -3.23365,-2.768079 -2.411642,-2.623989 -1.664975,-4.223989 0.387972,-0.824442 -0.951331,2.263359 1.180225,-0.131893 0.929774,-1.044797 0.619565,-1.229764 1.867926,-2.016367 2.184428,-1.376427 2.60403,-2.321495 2.97419,-2.395527 0.705363,-0.122672 -7.697107,3.645298 2.095835,0.325898 1.941468,-0.658077 -3.357306,0.853092 -2.065377,1.35173 3.093334,1.12 7.170394,-0.129347 3.811041,3.976542 z m 6.08537,19.478225 c 0.16,0.213333 0.24,0.48 0.24,0.8 0,0.426667 -0.32,1.226667 -0.96,2.4 -0.586667,1.173333 -0.88,2.053333 -0.88,2.64 l 0,39.12 c 0,0.0533 0.02667,0.4 0.08,1.04 l 0,1.76 c 0,2.47338 0.475882,5.68197 0.625045,8.50325 0.153178,2.89721 0.917592,6.23755 -0.851037,10.42147 -3.394625,5.81486 -6.103234,3.83573 -7.969901,3.83573 -3.893333,0 -6.888689,-3.57602 -10.1953553,-4.64269 -1.5466667,-0.48 -4.4685808,-4.83277 -6.8685808,-6.59277 -2.77333332,-2.02667 -3.7001705,-9.33832 -3.7001705,-10.56499 0,-0.74667 0.50666666,-1.44 1.51999997,-2.08 0.16000001,-0.10667 0.53333335,-0.16 1.12000003,-0.16 3.2,0 5.8666667,0.53333 8,1.6 0.5333331,0.64 1.0133326,1.28 1.4399996,1.92 0.853333,1.01333 4.871407,4.06349 5.30036,2.28896 1.201532,-4.97062 0.762479,-3.56866 0.551652,-10.25753 L 15.389609,75.41631 c -0.64,-2.026667 -0.96,-3.386667 -0.96,-4.08 0,-0.693333 0.986667,-1.04 2.96,-1.04 1.653333,0 3.893333,0.506667 6.72,1.52 2.826667,0.96 4.533333,1.813333 5.12,2.56 z"
         style="font-style:normal;font-variant:normal;font-weight:bold;font-stretch:normal;font-size:80px;line-height:125%;font-family:'Marker Felt';-inkscape-font-specification:'Marker Felt, Bold';text-align:start;writing-mode:lr-tb;text-anchor:start;fill:#ef7b2f;fill-opacity:1"
         id="path3380-9"
         inkscape:connector-curvature="0"
         sodipodi:nodetypes="cccscsscscccscsscsscsccscsccsscsscc" />
      <path
         d="m 50.7284,46.034053 c -1.59925,-4.092721 37.070679,-8.369884 45.283317,-8.141769 3.79081,0.105294 -10.095975,1.584189 -17.998883,5.656789 -0.844137,0.435009 -18.383611,3.42896 -25.037392,11.501808 4.586042,-0.145494 29.256519,-0.766994 32.54446,-0.915054 5.921947,-0.266673 -15.954009,4.645408 -17.404503,5.624869 -1.720677,1.161905 -8.461077,2.688477 -15.750779,5.286503 -0.533333,0.213333 -3.577648,2.538534 -7.630981,1.205201 -4.053333,-1.386667 -7.041113,-0.889423 -7.30778,-1.47609 -0.16,-0.266667 -0.24,-0.666667 -0.24,-1.2 0,-1.44 0.373333,-2.96 1.12,-4.56 0.407198,-0.865296 1.526815,-4.663756 0.810408,-8.249423 -0.78491,-3.928534 -3.411227,-7.634746 -2.853558,-7.74628 0.745689,-0.129685 9.627742,-2.138815 21.461772,-10.818144 C 65.357555,26.604204 82.457729,18.372537 83.649716,18.832602 84.580723,19.175605 72.703882,26.01663 68.830295,28.907357 60.055533,35.455668 56.025414,38.954255 50.7284,46.034053 Z m 1.977459,70.102257 c 0.213333,1.92 -0.453333,3.12 -2,3.6 -0.266667,0.0533 -0.64,0.08 -1.12,0.08 -1.92,0 -4.423049,0.55072 -7.249716,-0.24928 -3.04,-0.85333 -4.696951,-2.71072 -5.230284,-3.67072 -0.266667,-0.42667 -0.02667,-1.25333 0.72,-2.48 0.48,-0.8 0.72,-2.26667 0.72,-4.4 l 0,-33.6 c -0.64,-2.026667 -0.96,-3.386667 -0.96,-4.08 0,-0.693333 0.986667,-1.04 2.96,-1.04 1.6,0 3.813333,0.506667 6.64,1.52 2.88,0.96 4.613333,1.813333 5.2,2.56 0.16,0.213333 0.24,0.48 0.24,0.8 0,0.426667 -0.32,1.226667 -0.96,2.4 -0.586667,1.173333 -0.88,2.053333 -0.88,2.64 l 0,32.16 c 0,0.53333 0.293333,1.2 0.88,2 0.64,0.8 0.986667,1.38667 1.04,1.76 z"
         style="font-style:normal;font-variant:normal;font-weight:bold;font-stretch:normal;font-size:80px;line-height:125%;font-family:'Marker Felt';-inkscape-font-specification:'Marker Felt, Bold';text-align:start;writing-mode:lr-tb;text-anchor:start;fill:#ef9d2f;fill-opacity:1"
         id="path3382-0"
         inkscape:connector-curvature="0"
         sodipodi:nodetypes="csscsscccscscscscccscccscssccscsscc" />
      <path
         d="m 119.41961,112.61631 q 0.64,1.52 0.64,3.04 0,2.4 -1.84,3.28 -0.56,0.24 -2,0.24 -2.72,0 -6.48,-0.88 -3.76,-0.8 -4.56,-1.6 -0.4,-0.48 -0.4,-1.04 0,-0.88 1.2,-2.8 1.2,-2 1.2,-2.88 0.16,-31.52 -0.48,-31.76 -1.28,-0.4 -5.2,6.32 -4.320001,7.36 -4.320001,12.8 l 0,15.68 q 0.56,1.84 0.56,2.88 0,2 -2.08,3.04 -0.56,0.24 -2,0.24 -2.72,0 -6.48,-0.88 -3.76,-0.8 -4.56,-1.6 -0.32,-0.32 -0.32,-0.8 0,-0.8 1.12,-2.88 1.2,-2.08 1.2,-3.04 0.16,-31.52 -0.48,-31.76 -1.12,-0.4 -5.52,7.2 -4.64,8 -4.64,12.08 l 0,14.96 q 1.04,1.04 1.04,2.56 0,3.04 -2.72,4.16 -0.32,0.16 -0.96,0.16 -2.16,0 -6.32,-1.04 -4.16,-0.96 -4.64,-1.6 -0.48,-0.64 -0.48,-1.44 0,-0.8 0.88,-1.92 0.96,-1.12 0.96,-1.44 l 0,-37.2 q 0,-0.64 -0.64,-1.68 -0.64,-1.04 -0.4,-1.76 0.48,-1.68 2.48,-2.16 1.28,-0.32 6,0.88 5.12,1.28 5.6,2.64 0.32,0.88 -0.24,2.64 -0.88,2.8 -0.88,3.2 0,0.88 0.32,1.92 1.2,-4 3.36,-7.12 2.64,-3.76 5.28,-3.76 2.56,0 6.96,2 4.08,1.92 5.04,3.28 0.72,0.96 1.6,5.76 3.28,-6.08 3.76,-6.96 2.720001,-4.08 5.200001,-4.08 2.72,0 7.04,1.92 4.32,1.84 4.96,3.36 2.24,5.12 2.24,37.84 z"
         style="font-style:normal;font-variant:normal;font-weight:bold;font-stretch:normal;font-size:80px;line-height:125%;font-family:'Marker Felt';-inkscape-font-specification:'Marker Felt, Bold';text-align:start;writing-mode:lr-tb;text-anchor:start;fill:#ef7b2f;fill-opacity:1"
         id="path3384-8"
         inkscape:connector-curvature="0" />
      <path
         d="m 163.20086,72.05631 q 0.56,0.8 0.56,1.6 0,0.8 -0.96,1.92 -0.88,1.12 -0.88,1.44 l 0,37.2 q 0,0.48 0.48,1.68 0.56,1.2 0.56,1.76 0,1.44 -2.48,2.08 -1.28,0.32 -6,-0.88 -5.12,-1.28 -5.6,-2.56 -0.4,-1.04 0.24,-2.8 0.8,-2.08 0.8,-2.88 0,-0.8 -0.24,-2.08 -1.2,4 -3.36,7.12 -2.64,3.68 -5.28,3.68 -2.72,0 -7.04,-1.84 -4.32,-1.84 -4.96,-3.36 -2.24,-5.12 -2.24,-37.84 -0.64,-1.52 -0.64,-3.04 0,-2.48 1.84,-3.36 0.56,-0.24 2,-0.24 2.72,0 6.48,0.88 3.76,0.8 4.56,1.68 0.4,0.48 0.4,1.04 0,0.88 -1.2,2.88 -1.2,1.92 -1.2,2.8 -0.16,31.52 0.48,31.76 1.12,0.4 5.6,-7.36 4.56,-7.84 4.56,-11.92 l 0,-14.96 q -1.04,-1.04 -1.04,-2.56 0,-3.12 2.72,-4.24 0.32,-0.16 0.96,-0.16 2.16,0 6.32,1.04 4.16,0.96 4.56,1.52 z"
         style="font-style:normal;font-variant:normal;font-weight:bold;font-stretch:normal;font-size:80px;line-height:125%;font-family:'Marker Felt';-inkscape-font-specification:'Marker Felt, Bold';text-align:start;writing-mode:lr-tb;text-anchor:start;fill:#ef7b2f;fill-opacity:1"
         id="path3386-3"
         inkscape:connector-curvature="0" />
      <path
         d="m 203.83461,102.13631 q 0,1.52 -2.64,4.08 -2.16,4.72 -3.84,6.8 -3.68,4.8 -9.04,5.68 -1.12,0.16 -2.16,0.16 -4.48,0 -11.04,-4.32 -5.68,-3.84 -5.68,-17.68 0,-10.24 3.12,-18.56 3.44,-9.04 8.4,-9.36 3.92,-0.24 9.6,2.08 5.68,2.32 7.68,5.12 1.68,2.32 1.68,6.16 0,1.04 -0.16,3.04 -0.16,1.92 -0.08,2.72 0.16,2.16 0.16,2 0,2.56 -2.48,2.48 -2.88,-0.08 -5.44,-0.88 -3.44,-1.2 -4.16,-3.28 -0.24,-0.72 0.64,-1.92 0.96,-1.2 0.8,-2 0.16,-0.56 0.16,-2.8 0,-4.8 -1.68,-4.96 -2.56,-0.16 -4.32,7.76 -1.6,7.04 -1.6,15.36 0,9.84 2.32,10.4 1.84,0.4 4.8,-4 2.48,-3.76 2.64,-5.04 0.24,-1.36 0.4,-2.72 0.56,-2.24 2.88,-2.08 1.44,0.16 5.04,1.84 3.6,1.68 3.76,2.56 0.24,0.8 0.24,1.36 z"
         style="font-style:normal;font-variant:normal;font-weight:bold;font-stretch:normal;font-size:80px;line-height:125%;font-family:'Marker Felt';-inkscape-font-specification:'Marker Felt, Bold';text-align:start;writing-mode:lr-tb;text-anchor:start;fill:#ef7b2f;fill-opacity:1"
         id="path3388-8"
         inkscape:connector-curvature="0" />
    </g>
    <ellipse
       style="fill:#ffcc00;fill-opacity:1"
       id="path3507"
       cx="38.838478"
       cy="934.90393"
       rx="23.933744"
       ry="16.379242" />
  </g>
  <g
     inkscape:groupmode="layer"
     id="layer2"
     inkscape:label="Layer 2" />
</svg>
